<?xml version="1.0" encoding="UTF-8" standalone="no"?>
<svg width="483px" height="97px" viewBox="0 0 483 97" version="1.1" xmlns="http://www.w3.org/2000/svg" xmlns:xlink="http://www.w3.org/1999/xlink">
    <!-- Generator: Sketch 46.2 (44496) - http://www.bohemiancoding.com/sketch -->
    <title>impekable_logo_white</title>
    <desc>Created with Sketch.</desc>
    <defs></defs>
    <g id="Page-1" stroke="none" stroke-width="1" fill="none" fill-rule="evenodd">
        <g id="impekable_logo_white" transform="translate(-74.000000, -74.000000)" fill-rule="nonzero" fill="#FFFFFF">
            <path d="M83.7,119.1 C85.4,114.5 86,111.7 86,110.1 C86,108.5 85.4,108.1 84.8,108.1 C82.3,108.1 78,113.8 77.1,115.7 L74.5,114.1 C77.3,108.8 85.5,100.5 91.7,100.5 C94.6,100.5 96.1,102 96.1,106.5 C96.1,110 93.8,115.6 90.5,124.6 L87.2,133.6 C86.8,134.8 85.3,138.8 85.3,140.5 C85.3,141.6 85.8,142.5 87.2,142.5 C90.7,142.5 95.4,135.7 96.7,133.3 L99.4,134.8 C96.6,140.6 89.4,149.4 81.6,149.4 C78.1,149.4 76.4,147.7 76.4,143.6 C76.4,140.2 77.6,136.6 79.7,130.5 L83.7,119.1 Z M91.2,80.4 C91.2,77.2 93.6,74.6 96.7,74.6 C100,74.6 102.4,77.3 102.4,80.3 C102.4,83.4 99.8,85.8 96.7,85.8 C93.8,85.8 91.2,83.6 91.2,80.4 Z" id="Shape"></path>
            <path d="M164.9,107.6 C164.9,105.7 164.4,105 163.1,105 C159.9,105 155.4,109.5 150.3,117.6 C146.7,123.4 145,127.6 137.7,148.3 L129.3,148.3 L135.2,130.4 C140.2,115.3 141.6,110.3 141.6,107.8 C141.6,105.9 140.8,104.9 139.4,104.9 C134.7,104.9 125.4,116.8 121.2,128.1 L113.7,148.3 L105.9,148.3 L112.5,127.9 C116.9,114 118.1,109.9 118.1,107.6 C118.1,106 117.6,105.1 116.6,105.1 C114,105.1 109.4,111.9 106.8,119.4 L104.1,118.1 C108.3,106 113.3,100.2 119.9,100.2 C123.7,100.2 125.1,102.2 125.1,107.1 C125.1,109.9 124.7,112.5 123.6,115.3 L123.9,115.6 C129.3,105.5 135.3,100.2 141.4,100.2 C146,100.2 148.8,103.2 148.8,108.1 C148.8,109.8 148.4,111.5 147.3,115.7 L147.5,116 C154.2,104.7 159.2,100.3 165.4,100.3 C170,100.3 172.3,102.7 172.3,108 C172.3,111.4 171.1,115.5 167.9,125 C163.8,137.2 163.5,138.5 163.5,140.6 C163.5,141.8 163.8,142.3 164.4,142.3 C166.2,142.3 169.6,139 175.3,131.9 L177.6,133.1 C173.6,141 164.3,149.2 159.3,149.2 C156.4,149.2 154.5,146.4 154.5,142.2 C154.5,139.3 155.4,136.3 161.5,118.7 C164.6,110 164.9,109.1 164.9,107.6 Z" id="Shape"></path>
            <path d="M185,126.3 C185,121.9 188.7,118.4 193.1,118.4 C197.3,118.4 201,121.9 201,126.3 C201,130.7 197.4,134.2 192.9,134.2 C188.7,134.2 185,130.7 185,126.3 Z" id="Shape"></path>
            <path d="M206.4,115.1 C210.8,110.1 216.4,106 222.4,103.5 L226.6,89.3 L233.4,89.3 L230.3,101.1 C232.2,100.7 234,100.5 235.9,100.5 C245.9,100.5 251.8,106.3 251.8,116 C251.8,131.6 235.7,144.4 218.1,146.7 L214.8,159.1 C214.3,160.9 214.1,162 214.1,162.9 C214.1,165.8 216.2,166.9 222.4,167 L221.9,170.6 L196.8,170.6 L197.3,167 C202.3,167 204.2,166 205.1,162.9 L221.2,108 C216.7,110.3 212.5,113.7 208.9,117.5 L206.4,115.1 Z M229,105.3 L219,143 C230.9,140.7 242.5,129.4 242.5,116.6 C242.5,109.5 238.9,104.9 233.5,104.9 C232,104.9 230.5,105 229,105.3 Z" id="Shape"></path>
            <path d="M288,136.6 C282.9,145 276.4,149.3 269,149.3 C260.9,149.3 256.3,144 256.3,134.8 C256.3,118.4 271.2,100.4 284.7,100.4 C290.4,100.4 294.4,103.6 294.4,108.1 C294.4,116.4 281.2,126.2 265.3,129.8 C265,131.5 264.9,133.1 264.9,134.7 C264.9,141 267.3,144.4 271.7,144.4 C276.1,144.4 281,140.8 285,134.7 L288,136.6 Z M266.3,125.8 C277.7,122.7 286.1,115.4 286.1,108.3 C286.1,105.8 285,104.6 283,104.6 C276.8,104.6 269.3,115 266.3,125.8 Z" id="Shape"></path>
            <path d="M333.6,134.6 L335.9,135.8 C331.6,144.7 327.2,149.2 322.7,149.2 C319.9,149.2 318.3,147.5 316.1,142.3 L310.1,128.1 L308.1,129 L302.5,148.4 L294.4,148.4 L311.6,84.7 C312,83 312.2,82.1 312.2,81.4 C312.2,78.9 310.4,78.2 303.9,78.2 L304.7,75.5 L322.4,74.6 L313.2,108.8 L313.6,108.9 C317,103.2 321.4,100.3 326.7,100.3 C332.2,100.3 335.7,103.1 335.7,107.7 C335.7,113.2 329.8,119.2 320.1,123.6 L317.8,124.7 L322.3,136.4 C323.5,139.8 324.8,141.3 326.4,141.3 C328.1,141.3 330.5,139.1 333.6,134.6 Z M326.8,110 C326.8,107.7 325.5,106.4 323.2,106.4 C318.3,106.4 311.7,114.8 309.1,124.6 C319.3,121 326.8,114.8 326.8,110 Z" id="Shape"></path>
            <path d="M341,126.3 C341,121.9 344.7,118.4 349.1,118.4 C353.3,118.4 357,121.9 357,126.3 C357,130.7 353.4,134.2 348.9,134.2 C344.7,134.2 341,130.7 341,126.3 Z" id="Shape"></path>
            <path d="M405,101.3 L412.4,101.3 L407.3,114.9 C403.9,123.9 400.7,136.4 400.7,140.3 C400.7,142 401.3,142.9 402.4,142.9 C404.1,142.9 407.4,139.1 411.3,133.7 L413.6,135.6 C408.7,144.3 402.6,149.4 397.2,149.4 C394.4,149.4 392.9,147.4 392.9,142.7 C392.9,141.6 393,140.3 393.2,138 L392.8,137.9 C389.3,144.5 382.6,149.4 376.7,149.4 C370.7,149.4 367.1,144.5 367.1,136.5 C367.1,120.1 382.4,100.5 395.2,100.5 C399.1,100.5 401.5,102.3 403,106.4 L405,101.3 Z M375.7,136 C375.7,140.3 377.7,143 380.7,143 C389,143 399.5,121.5 399.5,110 C399.5,106.9 398.1,105 395.9,105 C386.8,105 375.7,123.7 375.7,136 Z" id="Shape"></path>
            <path d="M418.4,126.3 C418.4,121.9 422.1,118.4 426.5,118.4 C430.7,118.4 434.4,121.9 434.4,126.3 C434.4,130.7 430.8,134.2 426.3,134.2 C422.1,134.2 418.4,130.7 418.4,126.3 Z" id="Shape"></path>
            <path d="M459.2,108.9 L459.5,109.1 C463,103.7 468.4,100.5 474.2,100.5 C481.4,100.5 485.5,105.4 485.5,113.1 C485.5,130 469.6,149.3 455.2,149.3 C448.4,149.3 443.6,144.8 443.6,138.3 C443.6,135.2 444.9,129.5 447.4,121.7 L458.2,87 C458.8,84.9 459.5,82.4 459.5,81.3 C459.5,79.2 457.4,78.2 452.7,78.2 L453.4,75.5 L470.5,74.7 L459.2,108.9 Z M476.7,112.4 C476.7,108.3 474.6,105.2 471.8,105.2 C463.8,105.2 452.1,124.4 452.1,137.5 C452.1,142.3 453.6,144.8 456.6,144.8 C464.8,144.8 476.7,125.7 476.7,112.4 Z" id="Shape"></path>
            <path d="M502.8,87 C503.3,84.9 504.1,82.4 504.1,81.3 C504.1,79.2 502,78.2 497.3,78.2 L498,75.5 L514.3,74.7 L498.4,133.1 C497.5,136.3 497,138.7 497,140.4 C497,141.5 497.5,142.4 498.9,142.4 C502.7,142.4 507.9,134.9 509.3,132.3 L512,133.8 C508.4,141.9 500.2,149.3 494.7,149.3 C490.6,149.3 488.7,147.6 488.7,143.5 C488.7,141.1 489.3,137.4 491.1,130.4 L502.8,87 Z" id="Shape"></path>
            <path d="M550.4,136.6 C545.3,145 538.8,149.3 531.4,149.3 C523.3,149.3 518.7,144 518.7,134.8 C518.7,118.4 533.6,100.4 547.1,100.4 C552.8,100.4 556.8,103.6 556.8,108.1 C556.8,116.4 543.6,126.2 527.7,129.8 C527.4,131.5 527.3,133.1 527.3,134.7 C527.3,141 529.7,144.4 534.1,144.4 C538.5,144.4 543.4,140.8 547.4,134.7 L550.4,136.6 Z M528.6,125.8 C540,122.7 548.4,115.4 548.4,108.3 C548.4,105.8 547.3,104.6 545.3,104.6 C539.1,104.6 531.6,115 528.6,125.8 Z" id="Shape"></path>
        </g>
    </g>
</svg>